<?xml version="1.0" encoding="UTF-8" standalone="no"?><svg xmlns="http://www.w3.org/2000/svg" xmlns:xlink="http://www.w3.org/1999/xlink" contentScriptType="application/ecmascript" contentStyleType="text/css" height="370px" preserveAspectRatio="none" style="width:938px;height:370px;" version="1.1" viewBox="0 0 938 370" width="938px" zoomAndPan="magnify"><defs><filter height="300%" id="f1expalrrv8l1c" width="300%" x="-1" y="-1"><feGaussianBlur result="blurOut" stdDeviation="2.0"/><feColorMatrix in="blurOut" result="blurOut2" type="matrix" values="0 0 0 0 0 0 0 0 0 0 0 0 0 0 0 0 0 0 .4 0"/><feOffset dx="4.0" dy="4.0" in="blurOut2" result="blurOut3"/><feBlend in="SourceGraphic" in2="blurOut3" mode="normal"/></filter></defs><g><rect fill="#FFF5EE" height="355.7891" style="stroke: #A80036; stroke-width: 1.0;" width="495.5" x="4" y="4"/><text fill="#000000" font-family="sans-serif" font-size="13" font-weight="bold" lengthAdjust="spacingAndGlyphs" textLength="46" x="228.75" y="16.0669">Wallet</text><rect fill="#FFFFE0" height="355.7891" style="stroke: #A80036; stroke-width: 1.0;" width="156" x="771.5" y="4"/><text fill="#000000" font-family="sans-serif" font-size="13" font-weight="bold" lengthAdjust="spacingAndGlyphs" textLength="69" x="815" y="16.0669">Merchant</text><rect fill="#00BFFF" filter="url(#f1expalrrv8l1c)" height="155.6641" style="stroke: #A80036; stroke-width: 1.0;" width="10" x="56.5" y="89.5625"/><rect fill="#FFA500" filter="url(#f1expalrrv8l1c)" height="155.6641" style="stroke: #A80036; stroke-width: 1.0;" width="10" x="275.5" y="89.5625"/><rect fill="#FFA500" filter="url(#f1expalrrv8l1c)" height="97.3984" style="stroke: #A80036; stroke-width: 1.0;" width="10" x="428.5" y="118.6953"/><rect fill="#FFA500" filter="url(#f1expalrrv8l1c)" height="29.1328" style="stroke: #A80036; stroke-width: 1.0;" width="10" x="428.5" y="274.3594"/><rect fill="#87CEEB" filter="url(#f1expalrrv8l1c)" height="29.1328" style="stroke: #A80036; stroke-width: 1.0;" width="10" x="844.5" y="274.3594"/><line style="stroke: #A80036; stroke-width: 1.0; stroke-dasharray: 5.0,5.0;" x1="61" x2="61" y1="58.4297" y2="321.4922"/><line style="stroke: #A80036; stroke-width: 1.0; stroke-dasharray: 5.0,5.0;" x1="280.5" x2="280.5" y1="58.4297" y2="321.4922"/><line style="stroke: #A80036; stroke-width: 1.0; stroke-dasharray: 5.0,5.0;" x1="433.5" x2="433.5" y1="58.4297" y2="321.4922"/><line style="stroke: #A80036; stroke-width: 1.0; stroke-dasharray: 5.0,5.0;" x1="849.5" x2="849.5" y1="58.4297" y2="321.4922"/><rect fill="#00BFFF" filter="url(#f1expalrrv8l1c)" height="30.2969" style="stroke: #A80036; stroke-width: 1.5;" width="103" x="8" y="23.1328"/><text fill="#000000" font-family="sans-serif" font-size="14" lengthAdjust="spacingAndGlyphs" textLength="89" x="15" y="43.1279">Mini Program</text><rect fill="#00BFFF" filter="url(#f1expalrrv8l1c)" height="30.2969" style="stroke: #A80036; stroke-width: 1.5;" width="103" x="8" y="320.4922"/><text fill="#000000" font-family="sans-serif" font-size="14" lengthAdjust="spacingAndGlyphs" textLength="89" x="15" y="340.4873">Mini Program</text><rect fill="#FFA500" filter="url(#f1expalrrv8l1c)" height="30.2969" style="stroke: #A80036; stroke-width: 1.5;" width="140" x="208.5" y="23.1328"/><text fill="#000000" font-family="sans-serif" font-size="14" lengthAdjust="spacingAndGlyphs" textLength="126" x="215.5" y="43.1279">Wallet App Service</text><rect fill="#FFA500" filter="url(#f1expalrrv8l1c)" height="30.2969" style="stroke: #A80036; stroke-width: 1.5;" width="140" x="208.5" y="320.4922"/><text fill="#000000" font-family="sans-serif" font-size="14" lengthAdjust="spacingAndGlyphs" textLength="126" x="215.5" y="340.4873">Wallet App Service</text><rect fill="#FFA500" filter="url(#f1expalrrv8l1c)" height="30.2969" style="stroke: #A80036; stroke-width: 1.5;" width="120" x="371.5" y="23.1328"/><text fill="#000000" font-family="sans-serif" font-size="14" lengthAdjust="spacingAndGlyphs" textLength="106" x="378.5" y="43.1279">Wallet Backend</text><rect fill="#FFA500" filter="url(#f1expalrrv8l1c)" height="30.2969" style="stroke: #A80036; stroke-width: 1.5;" width="120" x="371.5" y="320.4922"/><text fill="#000000" font-family="sans-serif" font-size="14" lengthAdjust="spacingAndGlyphs" textLength="106" x="378.5" y="340.4873">Wallet Backend</text><rect fill="#87CEEB" filter="url(#f1expalrrv8l1c)" height="30.2969" style="stroke: #A80036; stroke-width: 1.5;" width="144" x="775.5" y="23.1328"/><text fill="#000000" font-family="sans-serif" font-size="14" lengthAdjust="spacingAndGlyphs" textLength="130" x="782.5" y="43.1279">Merchant Backend</text><rect fill="#87CEEB" filter="url(#f1expalrrv8l1c)" height="30.2969" style="stroke: #A80036; stroke-width: 1.5;" width="144" x="775.5" y="320.4922"/><text fill="#000000" font-family="sans-serif" font-size="14" lengthAdjust="spacingAndGlyphs" textLength="130" x="782.5" y="340.4873">Merchant Backend</text><rect fill="#00BFFF" filter="url(#f1expalrrv8l1c)" height="155.6641" style="stroke: #A80036; stroke-width: 1.0;" width="10" x="56.5" y="89.5625"/><rect fill="#FFA500" filter="url(#f1expalrrv8l1c)" height="155.6641" style="stroke: #A80036; stroke-width: 1.0;" width="10" x="275.5" y="89.5625"/><rect fill="#FFA500" filter="url(#f1expalrrv8l1c)" height="97.3984" style="stroke: #A80036; stroke-width: 1.0;" width="10" x="428.5" y="118.6953"/><rect fill="#FFA500" filter="url(#f1expalrrv8l1c)" height="29.1328" style="stroke: #A80036; stroke-width: 1.0;" width="10" x="428.5" y="274.3594"/><rect fill="#87CEEB" filter="url(#f1expalrrv8l1c)" height="29.1328" style="stroke: #A80036; stroke-width: 1.0;" width="10" x="844.5" y="274.3594"/><polygon fill="#A80036" points="263.5,85.5625,273.5,89.5625,263.5,93.5625,267.5,89.5625" style="stroke: #A80036; stroke-width: 1.0;"/><line style="stroke: #A80036; stroke-width: 1.0;" x1="66.5" x2="269.5" y1="89.5625" y2="89.5625"/><text fill="#000000" font-family="sans-serif" font-size="13" font-weight="bold" lengthAdjust="spacingAndGlyphs" textLength="9" x="73.5" y="84.4966">1</text><text fill="#000000" font-family="sans-serif" font-size="13" lengthAdjust="spacingAndGlyphs" textLength="182" x="86.5" y="84.4966">my.tradePay with paymentId</text><polygon fill="#A80036" points="416.5,114.6953,426.5,118.6953,416.5,122.6953,420.5,118.6953" style="stroke: #A80036; stroke-width: 1.0;"/><line style="stroke: #A80036; stroke-width: 1.0;" x1="285.5" x2="422.5" y1="118.6953" y2="118.6953"/><text fill="#000000" font-family="sans-serif" font-size="13" font-weight="bold" lengthAdjust="spacingAndGlyphs" textLength="9" x="292.5" y="113.6294">2</text><text fill="#000000" font-family="sans-serif" font-size="13" lengthAdjust="spacingAndGlyphs" textLength="84" x="305.5" y="113.6294">payment.pay</text><path d="M443,131.6953 L443,156.6953 L549,156.6953 L549,141.6953 L539,131.6953 L443,131.6953 " fill="#FBFB77" filter="url(#f1expalrrv8l1c)" style="stroke: #A80036; stroke-width: 1.0;"/><path d="M539,131.6953 L539,141.6953 L549,141.6953 L539,131.6953 " fill="#FBFB77" style="stroke: #A80036; stroke-width: 1.0;"/><text fill="#000000" font-family="sans-serif" font-size="13" lengthAdjust="spacingAndGlyphs" textLength="85" x="449" y="148.7622">Payment flow</text><polygon fill="#A80036" points="296.5,182.9609,286.5,186.9609,296.5,190.9609,292.5,186.9609" style="stroke: #A80036; stroke-width: 1.0;"/><line style="stroke: #A80036; stroke-width: 1.0; stroke-dasharray: 2.0,2.0;" x1="290.5" x2="427.5" y1="186.9609" y2="186.9609"/><text fill="#000000" font-family="sans-serif" font-size="13" font-weight="bold" lengthAdjust="spacingAndGlyphs" textLength="9" x="302.5" y="181.895">3</text><text fill="#000000" font-family="sans-serif" font-size="13" lengthAdjust="spacingAndGlyphs" textLength="106" x="315.5" y="181.895">return pay result</text><polygon fill="#A80036" points="837.5,212.0938,847.5,216.0938,837.5,220.0938,841.5,216.0938" style="stroke: #A80036; stroke-width: 1.0;"/><line style="stroke: #A80036; stroke-width: 1.0;" x1="433.5" x2="843.5" y1="216.0938" y2="216.0938"/><text fill="#000000" font-family="sans-serif" font-size="13" font-weight="bold" lengthAdjust="spacingAndGlyphs" textLength="9" x="440.5" y="211.0278">4</text><text fill="#000000" font-family="sans-serif" font-size="13" lengthAdjust="spacingAndGlyphs" textLength="281" x="453.5" y="211.0278">notify payment result with paymentNotifyUrl</text><polygon fill="#A80036" points="72.5,241.2266,62.5,245.2266,72.5,249.2266,68.5,245.2266" style="stroke: #A80036; stroke-width: 1.0;"/><line style="stroke: #A80036; stroke-width: 1.0; stroke-dasharray: 2.0,2.0;" x1="66.5" x2="279.5" y1="245.2266" y2="245.2266"/><text fill="#000000" font-family="sans-serif" font-size="13" font-weight="bold" lengthAdjust="spacingAndGlyphs" textLength="9" x="78.5" y="240.1606">5</text><text fill="#000000" font-family="sans-serif" font-size="13" lengthAdjust="spacingAndGlyphs" textLength="106" x="91.5" y="240.1606">return pay result</text><polygon fill="#A80036" points="449.5,270.3594,439.5,274.3594,449.5,278.3594,445.5,274.3594" style="stroke: #A80036; stroke-width: 1.0;"/><line style="stroke: #A80036; stroke-width: 1.0;" x1="443.5" x2="843.5" y1="274.3594" y2="274.3594"/><text fill="#000000" font-family="sans-serif" font-size="13" font-weight="bold" lengthAdjust="spacingAndGlyphs" textLength="9" x="455.5" y="269.2935">6</text><text fill="#000000" font-family="sans-serif" font-size="13" lengthAdjust="spacingAndGlyphs" textLength="379" x="468.5" y="269.2935">payment inquiry request with /v2/payments/inquiryPayment</text><polygon fill="#A80036" points="837.5,299.4922,847.5,303.4922,837.5,307.4922,841.5,303.4922" style="stroke: #A80036; stroke-width: 1.0;"/><line style="stroke: #A80036; stroke-width: 1.0; stroke-dasharray: 2.0,2.0;" x1="433.5" x2="843.5" y1="303.4922" y2="303.4922"/><text fill="#000000" font-family="sans-serif" font-size="13" font-weight="bold" lengthAdjust="spacingAndGlyphs" textLength="9" x="440.5" y="298.4263">7</text><text fill="#000000" font-family="sans-serif" font-size="13" lengthAdjust="spacingAndGlyphs" textLength="186" x="453.5" y="298.4263">return payment inquiry result</text></g></svg>