<?xml version="1.0" encoding="UTF-8" standalone="no"?><svg xmlns="http://www.w3.org/2000/svg" xmlns:xlink="http://www.w3.org/1999/xlink" contentScriptType="application/ecmascript" contentStyleType="text/css" height="429px" preserveAspectRatio="none" style="width:802px;height:429px;" version="1.1" viewBox="0 0 802 429" width="802px" zoomAndPan="magnify"><defs><filter height="300%" id="fvxch3046og3r" width="300%" x="-1" y="-1"><feGaussianBlur result="blurOut" stdDeviation="2.0"/><feColorMatrix in="blurOut" result="blurOut2" type="matrix" values="0 0 0 0 0 0 0 0 0 0 0 0 0 0 0 0 0 0 .4 0"/><feOffset dx="4.0" dy="4.0" in="blurOut2" result="blurOut3"/><feBlend in="SourceGraphic" in2="blurOut3" mode="normal"/></filter></defs><g><rect fill="#FFF5EE" height="414.0547" style="stroke: #A80036; stroke-width: 1.0;" width="429.5" x="4" y="4"/><text fill="#000000" font-family="sans-serif" font-size="13" font-weight="bold" lengthAdjust="spacingAndGlyphs" textLength="46" x="195.75" y="16.0669">Wallet</text><rect fill="#FFFFE0" height="414.0547" style="stroke: #A80036; stroke-width: 1.0;" width="156" x="635.5" y="4"/><text fill="#000000" font-family="sans-serif" font-size="13" font-weight="bold" lengthAdjust="spacingAndGlyphs" textLength="69" x="679" y="16.0669">Merchant</text><rect fill="#00BFFF" filter="url(#fvxch3046og3r)" height="293.3281" style="stroke: #A80036; stroke-width: 1.0;" width="10" x="56.5" y="68.4297"/><rect fill="#FFA500" filter="url(#fvxch3046og3r)" height="155.6641" style="stroke: #A80036; stroke-width: 1.0;" width="10" x="209.5" y="206.0938"/><rect fill="#FFA500" filter="url(#fvxch3046og3r)" height="29.1328" style="stroke: #A80036; stroke-width: 1.0;" width="10" x="362.5" y="118.6953"/><rect fill="#FFA500" filter="url(#fvxch3046og3r)" height="97.3984" style="stroke: #A80036; stroke-width: 1.0;" width="10" x="362.5" y="235.2266"/><rect fill="#87CEEB" filter="url(#fvxch3046og3r)" height="87.3984" style="stroke: #A80036; stroke-width: 1.0;" width="10" x="708.5" y="89.5625"/><line style="stroke: #A80036; stroke-width: 1.0; stroke-dasharray: 5.0,5.0;" x1="61" x2="61" y1="58.4297" y2="379.7578"/><line style="stroke: #A80036; stroke-width: 1.0; stroke-dasharray: 5.0,5.0;" x1="214.5" x2="214.5" y1="58.4297" y2="379.7578"/><line style="stroke: #A80036; stroke-width: 1.0; stroke-dasharray: 5.0,5.0;" x1="367.5" x2="367.5" y1="58.4297" y2="379.7578"/><line style="stroke: #A80036; stroke-width: 1.0; stroke-dasharray: 5.0,5.0;" x1="713.5" x2="713.5" y1="58.4297" y2="379.7578"/><rect fill="#00BFFF" filter="url(#fvxch3046og3r)" height="30.2969" style="stroke: #A80036; stroke-width: 1.5;" width="103" x="8" y="23.1328"/><text fill="#000000" font-family="sans-serif" font-size="14" lengthAdjust="spacingAndGlyphs" textLength="89" x="15" y="43.1279">Mini Program</text><rect fill="#00BFFF" filter="url(#fvxch3046og3r)" height="30.2969" style="stroke: #A80036; stroke-width: 1.5;" width="103" x="8" y="378.7578"/><text fill="#000000" font-family="sans-serif" font-size="14" lengthAdjust="spacingAndGlyphs" textLength="89" x="15" y="398.7529">Mini Program</text><rect fill="#FFA500" filter="url(#fvxch3046og3r)" height="30.2969" style="stroke: #A80036; stroke-width: 1.5;" width="140" x="142.5" y="23.1328"/><text fill="#000000" font-family="sans-serif" font-size="14" lengthAdjust="spacingAndGlyphs" textLength="126" x="149.5" y="43.1279">Wallet App Service</text><rect fill="#FFA500" filter="url(#fvxch3046og3r)" height="30.2969" style="stroke: #A80036; stroke-width: 1.5;" width="140" x="142.5" y="378.7578"/><text fill="#000000" font-family="sans-serif" font-size="14" lengthAdjust="spacingAndGlyphs" textLength="126" x="149.5" y="398.7529">Wallet App Service</text><rect fill="#FFA500" filter="url(#fvxch3046og3r)" height="30.2969" style="stroke: #A80036; stroke-width: 1.5;" width="120" x="305.5" y="23.1328"/><text fill="#000000" font-family="sans-serif" font-size="14" lengthAdjust="spacingAndGlyphs" textLength="106" x="312.5" y="43.1279">Wallet Backend</text><rect fill="#FFA500" filter="url(#fvxch3046og3r)" height="30.2969" style="stroke: #A80036; stroke-width: 1.5;" width="120" x="305.5" y="378.7578"/><text fill="#000000" font-family="sans-serif" font-size="14" lengthAdjust="spacingAndGlyphs" textLength="106" x="312.5" y="398.7529">Wallet Backend</text><rect fill="#87CEEB" filter="url(#fvxch3046og3r)" height="30.2969" style="stroke: #A80036; stroke-width: 1.5;" width="144" x="639.5" y="23.1328"/><text fill="#000000" font-family="sans-serif" font-size="14" lengthAdjust="spacingAndGlyphs" textLength="130" x="646.5" y="43.1279">Merchant Backend</text><rect fill="#87CEEB" filter="url(#fvxch3046og3r)" height="30.2969" style="stroke: #A80036; stroke-width: 1.5;" width="144" x="639.5" y="378.7578"/><text fill="#000000" font-family="sans-serif" font-size="14" lengthAdjust="spacingAndGlyphs" textLength="130" x="646.5" y="398.7529">Merchant Backend</text><rect fill="#00BFFF" filter="url(#fvxch3046og3r)" height="293.3281" style="stroke: #A80036; stroke-width: 1.0;" width="10" x="56.5" y="68.4297"/><rect fill="#FFA500" filter="url(#fvxch3046og3r)" height="155.6641" style="stroke: #A80036; stroke-width: 1.0;" width="10" x="209.5" y="206.0938"/><rect fill="#FFA500" filter="url(#fvxch3046og3r)" height="29.1328" style="stroke: #A80036; stroke-width: 1.0;" width="10" x="362.5" y="118.6953"/><rect fill="#FFA500" filter="url(#fvxch3046og3r)" height="97.3984" style="stroke: #A80036; stroke-width: 1.0;" width="10" x="362.5" y="235.2266"/><rect fill="#87CEEB" filter="url(#fvxch3046og3r)" height="87.3984" style="stroke: #A80036; stroke-width: 1.0;" width="10" x="708.5" y="89.5625"/><polygon fill="#A80036" points="696.5,85.5625,706.5,89.5625,696.5,93.5625,700.5,89.5625" style="stroke: #A80036; stroke-width: 1.0;"/><line style="stroke: #A80036; stroke-width: 1.0;" x1="66.5" x2="702.5" y1="89.5625" y2="89.5625"/><text fill="#000000" font-family="sans-serif" font-size="13" font-weight="bold" lengthAdjust="spacingAndGlyphs" textLength="9" x="73.5" y="84.4966">1</text><text fill="#000000" font-family="sans-serif" font-size="13" lengthAdjust="spacingAndGlyphs" textLength="79" x="86.5" y="84.4966">create order</text><polygon fill="#A80036" points="383.5,114.6953,373.5,118.6953,383.5,122.6953,379.5,118.6953" style="stroke: #A80036; stroke-width: 1.0;"/><line style="stroke: #A80036; stroke-width: 1.0;" x1="377.5" x2="707.5" y1="118.6953" y2="118.6953"/><text fill="#000000" font-family="sans-serif" font-size="13" font-weight="bold" lengthAdjust="spacingAndGlyphs" textLength="9" x="389.5" y="113.6294">2</text><text fill="#000000" font-family="sans-serif" font-size="13" lengthAdjust="spacingAndGlyphs" textLength="304" x="402.5" y="113.6294">initiate payment request with /v2/payments/pay</text><polygon fill="#A80036" points="696.5,143.8281,706.5,147.8281,696.5,151.8281,700.5,147.8281" style="stroke: #A80036; stroke-width: 1.0;"/><line style="stroke: #A80036; stroke-width: 1.0; stroke-dasharray: 2.0,2.0;" x1="367.5" x2="702.5" y1="147.8281" y2="147.8281"/><text fill="#000000" font-family="sans-serif" font-size="13" font-weight="bold" lengthAdjust="spacingAndGlyphs" textLength="9" x="374.5" y="142.7622">3</text><text fill="#000000" font-family="sans-serif" font-size="13" lengthAdjust="spacingAndGlyphs" textLength="139" x="387.5" y="142.7622">return payment detail</text><polygon fill="#A80036" points="77.5,172.9609,67.5,176.9609,77.5,180.9609,73.5,176.9609" style="stroke: #A80036; stroke-width: 1.0;"/><line style="stroke: #A80036; stroke-width: 1.0; stroke-dasharray: 2.0,2.0;" x1="71.5" x2="712.5" y1="176.9609" y2="176.9609"/><text fill="#000000" font-family="sans-serif" font-size="13" font-weight="bold" lengthAdjust="spacingAndGlyphs" textLength="9" x="83.5" y="171.895">4</text><text fill="#000000" font-family="sans-serif" font-size="13" lengthAdjust="spacingAndGlyphs" textLength="116" x="96.5" y="171.895">return order detail</text><polygon fill="#A80036" points="197.5,202.0938,207.5,206.0938,197.5,210.0938,201.5,206.0938" style="stroke: #A80036; stroke-width: 1.0;"/><line style="stroke: #A80036; stroke-width: 1.0;" x1="66.5" x2="203.5" y1="206.0938" y2="206.0938"/><text fill="#000000" font-family="sans-serif" font-size="13" font-weight="bold" lengthAdjust="spacingAndGlyphs" textLength="9" x="73.5" y="201.0278">5</text><text fill="#000000" font-family="sans-serif" font-size="13" lengthAdjust="spacingAndGlyphs" textLength="81" x="86.5" y="201.0278">my.tradePay</text><polygon fill="#A80036" points="350.5,231.2266,360.5,235.2266,350.5,239.2266,354.5,235.2266" style="stroke: #A80036; stroke-width: 1.0;"/><line style="stroke: #A80036; stroke-width: 1.0;" x1="219.5" x2="356.5" y1="235.2266" y2="235.2266"/><text fill="#000000" font-family="sans-serif" font-size="13" font-weight="bold" lengthAdjust="spacingAndGlyphs" textLength="9" x="226.5" y="230.1606">6</text><text fill="#000000" font-family="sans-serif" font-size="13" lengthAdjust="spacingAndGlyphs" textLength="84" x="239.5" y="230.1606">payment.pay</text><path d="M377,248.2266 L377,273.2266 L483,273.2266 L483,258.2266 L473,248.2266 L377,248.2266 " fill="#FBFB77" filter="url(#fvxch3046og3r)" style="stroke: #A80036; stroke-width: 1.0;"/><path d="M473,248.2266 L473,258.2266 L483,258.2266 L473,248.2266 " fill="#FBFB77" style="stroke: #A80036; stroke-width: 1.0;"/><text fill="#000000" font-family="sans-serif" font-size="13" lengthAdjust="spacingAndGlyphs" textLength="85" x="383" y="265.2935">Payment flow</text><polygon fill="#A80036" points="230.5,299.4922,220.5,303.4922,230.5,307.4922,226.5,303.4922" style="stroke: #A80036; stroke-width: 1.0;"/><line style="stroke: #A80036; stroke-width: 1.0; stroke-dasharray: 2.0,2.0;" x1="224.5" x2="361.5" y1="303.4922" y2="303.4922"/><text fill="#000000" font-family="sans-serif" font-size="13" font-weight="bold" lengthAdjust="spacingAndGlyphs" textLength="9" x="236.5" y="298.4263">7</text><text fill="#000000" font-family="sans-serif" font-size="13" lengthAdjust="spacingAndGlyphs" textLength="106" x="249.5" y="298.4263">return pay result</text><polygon fill="#A80036" points="701.5,328.625,711.5,332.625,701.5,336.625,705.5,332.625" style="stroke: #A80036; stroke-width: 1.0;"/><line style="stroke: #A80036; stroke-width: 1.0;" x1="367.5" x2="707.5" y1="332.625" y2="332.625"/><text fill="#000000" font-family="sans-serif" font-size="13" font-weight="bold" lengthAdjust="spacingAndGlyphs" textLength="9" x="374.5" y="327.5591">8</text><text fill="#000000" font-family="sans-serif" font-size="13" lengthAdjust="spacingAndGlyphs" textLength="281" x="387.5" y="327.5591">notify payment result with paymentNotifyUrl</text><polygon fill="#A80036" points="72.5,357.7578,62.5,361.7578,72.5,365.7578,68.5,361.7578" style="stroke: #A80036; stroke-width: 1.0;"/><line style="stroke: #A80036; stroke-width: 1.0; stroke-dasharray: 2.0,2.0;" x1="66.5" x2="213.5" y1="361.7578" y2="361.7578"/><text fill="#000000" font-family="sans-serif" font-size="13" font-weight="bold" lengthAdjust="spacingAndGlyphs" textLength="9" x="78.5" y="356.6919">9</text><text fill="#000000" font-family="sans-serif" font-size="13" lengthAdjust="spacingAndGlyphs" textLength="106" x="91.5" y="356.6919">return pay result</text></g></svg>